<svg aria-hidden="true" style="position: absolute; width: 0; height: 0; overflow: hidden;" version="1.1" xmlns="http://www.w3.org/2000/svg" xmlns:xlink="http://www.w3.org/1999/xlink">
<defs>
<symbol id="like" viewBox="0 0 32 32">
<path fill="#fff" style="fill: var(--color1, #fff)" d="M31.947 9.996c-0.467-5.141-4.106-8.871-8.66-8.871-3.034 0-5.812 1.633-7.375 4.249-1.549-2.651-4.213-4.25-7.199-4.25-4.553 0-8.193 3.73-8.66 8.871-0.037 0.227-0.188 1.422 0.272 3.371 0.663 2.811 2.196 5.368 4.43 7.393l11.148 10.117 11.34-10.116c2.235-2.025 3.767-4.582 4.43-7.394 0.46-1.948 0.309-3.144 0.273-3.371zM30.476 13.084c-0.606 2.568-2.009 4.907-4.056 6.76l-10.509 9.376-10.329-9.373c-2.050-1.857-3.453-4.196-4.059-6.763-0.436-1.844-0.257-2.886-0.256-2.893l0.009-0.062c0.4-4.504 3.527-7.774 7.436-7.774 2.884 0 5.424 1.772 6.629 4.625l0.567 1.343 0.567-1.343c1.186-2.809 3.859-4.624 6.812-4.624 3.909 0 7.036 3.27 7.444 7.832 0.001 0.010 0.18 1.052-0.255 2.897z"></path>
</symbol>
<symbol id="shopping-cart" viewBox="0 0 32 32">
<path fill="#fff" style="fill: var(--color1, #fff)" d="M31.867 5.6c-0.133-0.133-0.267-0.267-0.533-0.267h-25.333l-0.667-3.467c0-0.267-0.4-0.533-0.667-0.533h-4c-0.4-0-0.667 0.267-0.667 0.667s0.267 0.667 0.667 0.667h3.467l3.2 16.267c0.4 2.133 2.4 3.733 4.533 3.733h15.333c0.4 0 0.667-0.267 0.667-0.667s-0.267-0.667-0.667-0.667h-15.2c-1.067 0-2.133-0.533-2.667-1.467l19.467-2.667c0.267 0 0.533-0.267 0.533-0.533l2.667-10.667s0-0.267-0.133-0.4zM28.133 16l-19.467 2.533-2.4-12h24.133l-2.267 9.467zM11.333 24c-1.867 0-3.333 1.467-3.333 3.333s1.467 3.333 3.333 3.333c1.867 0 3.333-1.467 3.333-3.333s-1.467-3.333-3.333-3.333zM11.333 29.333c-1.067 0-2-0.933-2-2s0.933-2 2-2 2 0.933 2 2-0.933 2-2 2zM24.667 24c-1.867 0-3.333 1.467-3.333 3.333s1.467 3.333 3.333 3.333c1.867 0 3.333-1.467 3.333-3.333s-1.467-3.333-3.333-3.333zM24.667 29.333c-1.067 0-2-0.933-2-2s0.933-2 2-2 2 0.933 2 2-0.933 2-2 2z"></path>
</symbol>
<symbol id="shuffle" viewBox="0 0 32 32">
<path fill="#fff" style="fill: var(--color1, #fff)" d="M12.699 21.831l0.979-1.58c0.235-0.379 0.118-0.868-0.261-1.103-0.372-0.235-0.868-0.118-1.103 0.261l-0.979 1.58c-1.776 2.866-4.309 4.512-6.96 4.512h-3.578c-0.444 0-0.797 0.359-0.797 0.803s0.359 0.803 0.797 0.803h3.585c3.219-0.013 6.249-1.933 8.318-5.276zM31.758 6.448l-3.878-3.885c-0.313-0.313-0.816-0.313-1.13 0s-0.313 0.816 0 1.13l2.52 2.52h-3.715c-3.212 0-6.249 1.92-8.318 5.263l-0.601 0.973c-0.235 0.379-0.118 0.868 0.261 1.103 0.131 0.078 0.274 0.118 0.418 0.118 0.268 0 0.529-0.137 0.679-0.379l0.601-0.973c1.776-2.866 4.309-4.505 6.96-4.505h3.709l-2.52 2.52c-0.313 0.313-0.313 0.816 0 1.13 0.157 0.157 0.359 0.235 0.568 0.235s0.411-0.078 0.568-0.235l3.885-3.885c0.307-0.313 0.307-0.823-0.007-1.13zM30.054 7.022v-0.026l0.013 0.013-0.013 0.013z"></path>
<path fill="#fff" style="fill: var(--color1, #fff)" d="M26.744 30.743c0.157 0.157 0.359 0.235 0.568 0.235s0.411-0.078 0.568-0.235l3.885-3.885c0.313-0.313 0.313-0.816 0-1.13l-3.885-3.878c-0.313-0.313-0.816-0.313-1.13 0s-0.313 0.816 0 1.13l2.52 2.52h-3.598c-2.644 0-5.184-1.645-6.96-4.512l-5.889-9.513c-2.070-3.35-5.106-5.263-8.318-5.263h-3.709c-0.444 0-0.797 0.359-0.797 0.803s0.359 0.803 0.797 0.803h3.702c2.644 0 5.184 1.645 6.96 4.505l5.889 9.513c2.070 3.35 5.106 5.269 8.318 5.269h3.598l-2.52 2.52c-0.307 0.3-0.307 0.803 0 1.116zM30.054 26.284l0.013 0.013-0.013 0.013v-0.026z"></path>
</symbol>
<symbol id="wall-clock" viewBox="0 0 32 32">
<path fill="#fff" style="fill: var(--color1, #fff)" d="M4.686 4.686c3.022-3.022 7.040-4.686 11.314-4.686s8.292 1.664 11.314 4.686c3.022 3.022 4.686 7.040 4.686 11.314s-1.664 8.292-4.686 11.314c-3.022 3.022-7.040 4.686-11.314 4.686s-8.292-1.664-11.314-4.686c-3.022-3.022-4.686-7.040-4.686-11.314s1.664-8.292 4.686-11.314zM16 29.5c7.444 0 13.5-6.056 13.5-13.5s-6.056-13.5-13.5-13.5-13.5 6.056-13.5 13.5 6.056 13.5 13.5 13.5z"></path>
<path fill="#fff" style="fill: var(--color1, #fff)" d="M14.75 14.75v-10h2.5v12.5h-9.5v-2.5z"></path>
</symbol>
</defs>
</svg>
