<svg aria-hidden="true" style="position:absolute;width:0;height:0" xmlns="http://www.w3.org/2000/svg" overflow="hidden"><defs><symbol id="explore" viewBox="0 0 32 32"><path fill="var(--color1, #00af80)" d="M26.165 7.46a14.264 14.264 0 00-8.29-4.089V1.875C17.875.841 17.034 0 16 0s-1.875.841-1.875 1.875v1.497a14.268 14.268 0 00-6.049 2.257l.053-.033a.625.625 0 10.685 1.045 13.055 13.055 0 015.981-2.086l.03-.003A12.9 12.9 0 0116 4.5c7.237 0 13.125 5.888 13.125 13.125S23.237 30.75 16 30.75 2.875 24.862 2.875 17.625c0-2.565.74-5.05 2.142-7.186a.624.624 0 10-1.045-.685 14.316 14.316 0 00-2.346 7.872c0 3.84 1.495 7.45 4.21 10.165s6.325 4.21 10.165 4.21 7.45-1.495 10.165-4.21c2.715-2.715 4.21-6.325 4.21-10.165s-1.495-7.449-4.21-10.165zm-10.79-4.196V1.875a.625.625 0 011.25 0v1.389a13.284 13.284 0 00-.624-.014H16c-.209 0-.417.005-.625.014z"/><path fill="var(--color1, #00af80)" d="M16 29.5c6.548 0 11.875-5.327 11.875-11.875S22.548 5.75 16 5.75 4.125 11.077 4.125 17.625 9.452 29.5 16 29.5zM16 7c5.859 0 10.625 4.766 10.625 10.625S21.859 28.25 16 28.25 5.375 23.484 5.375 17.625 10.141 7 16 7z"/><path fill="var(--color1, #00af80)" d="M8.597 18.25h5.231l.546.825c.047.07.106.129.174.175l.002.001.825.546v5.231a.625.625 0 001.25 0v-4.403l4.46 2.952a.625.625 0 00.864-.868l.001.002-2.952-4.46h4.403a.625.625 0 000-1.25H18.17l-.546-.825a.644.644 0 00-.174-.175L17.448 16l-.825-.546v-5.231a.625.625 0 00-1.25 0v4.403l-4.46-2.952a.625.625 0 00-.865.868l-.001-.002L12.999 17H8.596a.625.625 0 000 1.25zm8.057-1.279l2.56 3.867-3.867-2.56-2.56-3.867zM6.277 8.527a.626.626 0 10-.001 0h.001z"/></symbol><symbol id="globe" viewBox="0 0 32 32"><path fill="var(--color1, #00af80)" d="M29.059 6.774a15.573 15.573 0 00-.788-1.027l.02.024C25.354 2.247 20.934-.001 16-.001L15.976 0l-.014-.001-.055.002C11.01.029 6.629 2.27 3.709 5.771c-.269.324-.524.658-.768 1.002a15.78 15.78 0 00-2.94 9.214v.012-.001c0 3.434 1.091 6.617 2.94 9.226.244.344.499.679.768 1.002 2.919 3.501 7.3 5.742 12.198 5.77l.055.002.014-.001.024.001c4.935 0 9.354-2.247 12.292-5.771.269-.323.524-.659.768-1.003A15.78 15.78 0 0032 16.01v-.013.001c0-3.433-1.092-6.616-2.94-9.225zM11.323 2.081C9.853 3.5 8.63 5.573 7.788 8.062a15.246 15.246 0 01-3.02-1.503 14.763 14.763 0 016.451-4.447l.103-.031zM3.998 7.563c.995.664 2.145 1.245 3.417 1.724a25.5 25.5 0 00-.876 6.578H1.316a14.54 14.54 0 012.712-8.346l-.03.044zm-2.633 9.615h5.2c.084 2.004.389 3.9.891 5.714l-.042-.177c-1.272.479-2.422 1.059-3.415 1.724a14.447 14.447 0 01-2.629-7.208l-.004-.053zm3.407 8.26a15.378 15.378 0 013.014-1.5c.842 2.489 2.065 4.562 3.536 5.98a14.728 14.728 0 01-6.551-4.48zm10.572 5.202c-2.694-.369-5.019-3.132-6.337-7.111 1.9-.57 4.052-.915 6.337-.971v8.082zm0-9.394c-2.41.058-4.682.43-6.706 1.051a24.398 24.398 0 01-.759-5.119h7.464v4.068zm0-5.381H7.852a24.82 24.82 0 01.792-6.16c2.021.619 4.291.992 6.699 1.049v5.111zm0-6.423c-2.284-.056-4.435-.4-6.333-.97 1.317-3.977 3.641-6.743 6.333-7.112v8.082zm15.339 6.423h-5.299c-.012-2.338-.323-4.554-.868-6.552 1.3-.483 2.474-1.073 3.486-1.749a14.482 14.482 0 012.681 8.294v.007zM27.23 6.56c-.893.585-1.932 1.1-3.087 1.526-.85-2.523-2.09-4.621-3.584-6.045 2.68.9 4.937 2.463 6.653 4.497l.018.022zM16.656 1.37c2.664.412 4.959 3.172 6.263 7.122-1.881.557-4.007.895-6.263.95V1.37zm0 9.384c2.38-.056 4.625-.421 6.627-1.027.491 1.867.776 3.942.787 6.138h-7.414v-5.111zm0 6.424h7.388a24.488 24.488 0 01-.792 5.268l.038-.171c-2.005-.608-4.253-.972-6.633-1.029l-.001-4.069zm0 13.452v-8.072c2.258.055 4.384.393 6.267.95-1.306 3.952-3.603 6.71-6.267 7.122zm3.903-.671c1.493-1.423 2.736-3.52 3.586-6.044 1.153.425 2.19.94 3.082 1.524a14.732 14.732 0 01-6.668 4.52zm7.443-5.52a16.8 16.8 0 00-3.486-1.75c.456-1.629.757-3.515.839-5.459l.002-.051h5.278a14.528 14.528 0 01-2.662 7.304l.03-.044z"/></symbol><symbol id="money" viewBox="0 0 32 32"><path fill="var(--color1, #00af80)" d="M22.848 22.233h-9.187a.469.469 0 000 .938h9.187a3.285 3.285 0 003.282-3.282v-7.04a3.285 3.285 0 00-3.282-3.282h-2.662l-6.05-3.088a1.23 1.23 0 00-1.653.536L11.18 9.568H9.444c-.603 0-1.094.491-1.094 1.094v11.416c0 .603.491 1.094 1.094 1.094h2.155a.469.469 0 000-.938H9.444a.156.156 0 01-.156-.156V10.662c0-.086.07-.156.156-.156h13.404a2.347 2.347 0 012.344 2.344v1.524h-3.735a2.171 2.171 0 00-2.169 2.169v.625c0 1.196.973 2.169 2.169 2.169h3.735v.553a2.347 2.347 0 01-2.344 2.345zm-9.53-14.792a.292.292 0 01.393-.127l-.002-.001 4.414 2.253h-5.891zm8.139 10.957a1.232 1.232 0 01-1.231-1.231v-.625c0-.679.552-1.231 1.231-1.231h3.735v3.088z"/><path fill="var(--color1, #00af80)" d="M30.871 10.293a14.894 14.894 0 00-3.221-4.845 15.576 15.576 0 00-1.047-.961l-.024-.02a.468.468 0 00-.66.06l-.001.001a.468.468 0 00.06.66l.001.001c.364.304.692.605 1.005.92l.001.001a13.95 13.95 0 014.077 9.891c0 3.75-1.46 7.275-4.111 9.926s-6.176 4.111-9.926 4.111a13.91 13.91 0 01-8.174-2.624l.554-.72a13.015 13.015 0 007.62 2.436c3.508 0 6.807-1.371 9.291-3.861s3.847-5.793 3.838-9.301C30.136 8.765 24.261 2.89 17.058 2.872h-.034c-2.094 0-4.098.481-5.954 1.43a13.28 13.28 0 00-4.557 3.842.468.468 0 00.093.655l.001.001a.468.468 0 00.655-.092l.001-.001a12.258 12.258 0 019.763-4.897h.03c6.689.017 12.144 5.472 12.161 12.161.008 3.257-1.258 6.324-3.564 8.637s-5.371 3.586-8.627 3.586a12.09 12.09 0 01-7.241-2.382.716.716 0 00-.99.14l-.825 1.073a.702.702 0 00-.14.538v-.004a.716.716 0 00.281.476l.002.001a14.845 14.845 0 008.914 2.941c4 0 7.761-1.558 10.589-4.386s4.386-6.589 4.386-10.589c0-1.97-.38-3.89-1.129-5.707z"/><path fill="var(--color1, #00af80)" d="M6.135 13.734a.65.65 0 00-.396-.299l-.005-.001a.643.643 0 00-.498.072l.003-.002-.17.101a12.059 12.059 0 011.106-3.169l-.032.067a.469.469 0 00-.835-.427l-.001.003A12.748 12.748 0 003.99 14.4l-.006.062a.469.469 0 00.707.456l-.002.001.783-.464.463.781-2.677 1.586-2.205-2 .61-.672.629.571a.47.47 0 00.781-.294v-.002a13.854 13.854 0 014.024-8.352 13.944 13.944 0 019.877-4.111h.048c2.567 0 5.069.692 7.24 2.004a.469.469 0 10.487-.801l-.002-.001a14.927 14.927 0 00-7.725-2.139h-.051c-1.97.007-3.889.393-5.703 1.148S7.827 4.018 6.434 5.411c-2.218 2.218-3.647 4.976-4.168 8.022l-.184-.167a.656.656 0 00-.923.045l-.992 1.094a.652.652 0 00.045.923l2.537 2.302a.71.71 0 00.845.085L6.657 15.9a.654.654 0 00.229-.895zm16.437 3.115a.79.79 0 11-1.582 0 .79.79 0 011.582 0z"/></symbol><symbol id="settings" viewBox="0 0 32 32"><path fill="var(--color1, #00af80)" d="M30.362 12.641l-2.246-.381a12.74 12.74 0 00-.902-2.179l1.324-1.852a1.97 1.97 0 00-.214-2.547L26.332 3.69a1.963 1.963 0 00-2.54-.214L21.934 4.8a12.555 12.555 0 00-2.259-.929l-.374-2.219A1.978 1.978 0 0017.353.001h-2.818c-.969 0-1.791.695-1.952 1.651l-.388 2.273c-.749.234-1.477.541-2.173.916L8.184 3.517a1.96 1.96 0 00-1.15-.368c-.528 0-1.029.207-1.397.582L3.638 5.723a1.98 1.98 0 00-.214 2.547l1.337 1.878a12.356 12.356 0 00-.889 2.186l-2.219.374a1.978 1.978 0 00-1.651 1.948v2.818c0 .969.695 1.791 1.651 1.952l2.273.388c.234.749.541 1.477.916 2.173l-1.317 1.832a1.97 1.97 0 00.214 2.547l1.992 1.992a1.963 1.963 0 002.54.214l1.878-1.337a12.66 12.66 0 002.112.869l.374 2.246a1.978 1.978 0 001.948 1.651h2.825c.969 0 1.791-.695 1.952-1.651l.381-2.246a12.74 12.74 0 002.179-.902l1.852 1.324a1.96 1.96 0 001.15.368 1.96 1.96 0 001.397-.582l1.992-1.992a1.98 1.98 0 00.214-2.547l-1.324-1.858c.368-.702.675-1.431.902-2.179l2.246-.374A1.978 1.978 0 0032 17.414v-2.818a1.952 1.952 0 00-1.638-1.952zm-.154 4.766c0 .087-.06.16-.147.174l-2.808.468a.898.898 0 00-.722.662 10.714 10.714 0 01-1.163 2.801.906.906 0 00.04.983l1.651 2.326a.182.182 0 01-.02.227l-1.992 1.992a.169.169 0 01-.127.053.162.162 0 01-.1-.033l-2.32-1.651a.903.903 0 00-.983-.04c-.876.521-1.818.909-2.801 1.163a.887.887 0 00-.662.722l-.475 2.808a.173.173 0 01-.174.147h-2.814a.174.174 0 01-.174-.147l-.468-2.808a.898.898 0 00-.662-.722 11.097 11.097 0 01-2.741-1.123.927.927 0 00-.455-.12.874.874 0 00-.521.167l-2.34 1.665a.198.198 0 01-.1.033.182.182 0 01-.127-.053l-1.992-1.992a.18.18 0 01-.02-.227l1.644-2.306a.914.914 0 00.04-.989 10.586 10.586 0 01-1.176-2.794.915.915 0 00-.722-.662l-2.828-.481a.173.173 0 01-.147-.174v-2.814c0-.087.06-.16.147-.174l2.788-.468a.905.905 0 00.729-.668c.247-.983.628-1.932 1.143-2.808a.892.892 0 00-.047-.976l-1.665-2.34a.182.182 0 01.02-.227l1.992-1.992a.169.169 0 01.127-.053c.04 0 .074.013.1.033l2.306 1.644a.914.914 0 00.989.04 10.586 10.586 0 012.794-1.176.915.915 0 00.662-.722l.481-2.828a.173.173 0 01.174-.147h2.814c.087 0 .16.06.174.147l.468 2.788c.06.354.321.642.668.729 1.009.254 1.972.648 2.868 1.176a.904.904 0 00.983-.04l2.306-1.658a.198.198 0 01.1-.033c.027 0 .08.007.127.053l1.992 1.992a.18.18 0 01.02.227l-1.651 2.32a.903.903 0 00-.04.983c.521.876.909 1.818 1.163 2.801a.887.887 0 00.722.662l2.808.475a.173.173 0 01.147.174v2.814h-.007z"/><path fill="var(--color1, #00af80)" d="M16.003 9.091c-3.81 0-6.905 3.095-6.905 6.905s3.095 6.905 6.905 6.905 6.905-3.095 6.905-6.905-3.095-6.905-6.905-6.905zm0 12.006c-2.814 0-5.1-2.286-5.1-5.1s2.286-5.1 5.1-5.1 5.1 2.286 5.1 5.1-2.286 5.1-5.1 5.1z"/></symbol></defs></svg>