<svg aria-hidden="true" style="position: absolute; width: 0; height: 0; overflow: hidden;" version="1.1" xmlns="http://www.w3.org/2000/svg" xmlns:xlink="http://www.w3.org/1999/xlink">
<defs>
<symbol id="explore" viewBox="0 0 32 32">
<path fill="#00af80" style="fill: var(--color1, #00af80)" d="M26.165 7.46c-2.268-2.268-5.16-3.684-8.29-4.089v-1.496c0-1.034-0.841-1.875-1.875-1.875s-1.875 0.841-1.875 1.875v1.497c-2.261 0.302-4.291 1.090-6.049 2.257l0.053-0.033c-0.289 0.189-0.369 0.577-0.18 0.865s0.577 0.369 0.865 0.18c1.8-1.18 3.847-1.891 5.981-2.086 0.010-0.001 0.020-0.001 0.030-0.003 0.352-0.033 0.761-0.052 1.175-0.052h0c7.237 0 13.125 5.888 13.125 13.125s-5.888 13.125-13.125 13.125-13.125-5.888-13.125-13.125c0-2.565 0.74-5.050 2.142-7.186 0.189-0.289 0.109-0.676-0.18-0.865s-0.676-0.109-0.865 0.18c-1.535 2.341-2.346 5.063-2.346 7.872 0 3.84 1.495 7.45 4.21 10.165s6.325 4.21 10.165 4.21 7.45-1.495 10.165-4.21c2.715-2.715 4.21-6.325 4.21-10.165s-1.495-7.449-4.21-10.165zM15.375 3.264v-1.389c0-0.345 0.28-0.625 0.625-0.625s0.625 0.28 0.625 0.625v1.389c-0.186-0.009-0.404-0.014-0.624-0.014h-0.001c-0.209 0-0.417 0.005-0.625 0.014z"></path>
<path fill="#00af80" style="fill: var(--color1, #00af80)" d="M16 29.5c6.548 0 11.875-5.327 11.875-11.875s-5.327-11.875-11.875-11.875c-6.548 0-11.875 5.327-11.875 11.875s5.327 11.875 11.875 11.875zM16 7c5.859 0 10.625 4.766 10.625 10.625s-4.766 10.625-10.625 10.625-10.625-4.766-10.625-10.625c0-5.859 4.766-10.625 10.625-10.625z"></path>
<path fill="#00af80" style="fill: var(--color1, #00af80)" d="M8.597 18.25h5.231l0.546 0.825c0.047 0.070 0.106 0.129 0.174 0.175l0.002 0.001 0.825 0.546v5.231c0 0.345 0.28 0.625 0.625 0.625s0.625-0.28 0.625-0.625v-4.403l4.46 2.952c0.097 0.065 0.216 0.104 0.344 0.104 0 0 0 0 0 0h-0c0 0 0 0 0 0 0.345 0 0.625-0.28 0.625-0.625 0-0.128-0.039-0.248-0.105-0.347l0.001 0.002-2.952-4.46h4.403c0.345 0 0.625-0.28 0.625-0.625s-0.28-0.625-0.625-0.625h-5.231l-0.546-0.825c-0.047-0.070-0.106-0.129-0.174-0.175l-0.002-0.001-0.825-0.546v-5.231c0-0.345-0.28-0.625-0.625-0.625s-0.625 0.28-0.625 0.625v4.403l-4.46-2.952c-0.097-0.065-0.217-0.104-0.345-0.104-0.345 0-0.625 0.28-0.625 0.625 0 0.129 0.039 0.248 0.105 0.347l-0.001-0.002 2.952 4.46h-4.403c-0.345 0-0.625 0.28-0.625 0.625s0.28 0.625 0.625 0.625zM16.654 16.971l2.56 3.867-3.867-2.56-2.56-3.867zM6.277 8.527c0.15 0 0.301-0.054 0.42-0.163l0-0c0.255-0.232 0.274-0.627 0.042-0.883s-0.628-0.274-0.883-0.042c-0.255 0.232-0.274 0.628-0.042 0.883 0.114 0.126 0.279 0.205 0.462 0.205 0 0 0.001 0 0.001 0h-0z"></path>
</symbol>
<symbol id="globe" viewBox="0 0 32 32">
<path fill="#00af80" style="fill: var(--color1, #00af80)" d="M29.059 6.774c-0.271-0.384-0.524-0.711-0.788-1.027l0.020 0.024c-2.937-3.524-7.357-5.772-12.291-5.772l-0.024 0.001-0.014-0.001c-0.018 0-0.036 0.002-0.055 0.002-4.897 0.028-9.278 2.269-12.198 5.77-0.269 0.324-0.524 0.658-0.768 1.002-1.839 2.561-2.94 5.759-2.94 9.214 0 0.004 0 0.008 0 0.012v-0.001c0 3.434 1.091 6.617 2.94 9.226 0.244 0.344 0.499 0.679 0.768 1.002 2.919 3.501 7.3 5.742 12.198 5.77 0.019 0 0.037 0.002 0.055 0.002l0.014-0.001 0.024 0.001c4.935 0 9.354-2.247 12.292-5.771 0.269-0.323 0.524-0.659 0.768-1.003 1.839-2.561 2.94-5.759 2.94-9.214 0-0.004 0-0.009 0-0.013v0.001c0-3.433-1.092-6.616-2.94-9.225zM11.323 2.081c-1.47 1.419-2.693 3.492-3.535 5.981-1.128-0.421-2.144-0.929-3.020-1.503 1.708-2.025 3.923-3.571 6.451-4.447l0.103-0.031zM3.998 7.563c0.995 0.664 2.145 1.245 3.417 1.724-0.549 2.005-0.864 4.23-0.876 6.578h-5.223c0.029-3.115 1.030-5.991 2.712-8.346l-0.030 0.044zM1.365 17.178h5.2c0.084 2.004 0.389 3.9 0.891 5.714l-0.042-0.177c-1.272 0.479-2.422 1.059-3.415 1.724-1.454-2.034-2.407-4.517-2.629-7.208l-0.004-0.053zM4.772 25.438c0.876-0.572 1.889-1.079 3.014-1.5 0.842 2.489 2.065 4.562 3.536 5.98-2.58-0.868-4.833-2.442-6.551-4.48zM15.344 30.64c-2.694-0.369-5.019-3.132-6.337-7.111 1.9-0.57 4.052-0.915 6.337-0.971v8.082zM15.344 21.246c-2.41 0.058-4.682 0.43-6.706 1.051-0.414-1.573-0.679-3.299-0.759-5.119h7.464v4.068zM15.344 15.865h-7.492c0.012-2.205 0.299-4.288 0.792-6.16 2.021 0.619 4.291 0.992 6.699 1.049v5.111zM15.344 9.442c-2.284-0.056-4.435-0.4-6.333-0.97 1.317-3.977 3.641-6.743 6.333-7.112v8.082zM30.683 15.865h-5.299c-0.012-2.338-0.323-4.554-0.868-6.552 1.3-0.483 2.474-1.073 3.486-1.749 1.652 2.311 2.652 5.186 2.681 8.294l0 0.007zM27.23 6.56c-0.893 0.585-1.932 1.1-3.087 1.526-0.85-2.523-2.090-4.621-3.584-6.045 2.68 0.9 4.937 2.463 6.653 4.497l0.018 0.022zM16.656 1.37c2.664 0.412 4.959 3.172 6.263 7.122-1.881 0.557-4.007 0.895-6.263 0.95v-8.072zM16.656 10.754c2.38-0.056 4.625-0.421 6.627-1.027 0.491 1.867 0.776 3.942 0.787 6.138h-7.414v-5.111zM16.656 17.178h7.388c-0.078 1.846-0.348 3.593-0.792 5.268l0.038-0.171c-2.005-0.608-4.253-0.972-6.633-1.029l-0.001-4.069zM16.656 30.63v-8.072c2.258 0.055 4.384 0.393 6.267 0.95-1.306 3.952-3.603 6.71-6.267 7.122zM20.559 29.959c1.493-1.423 2.736-3.52 3.586-6.044 1.153 0.425 2.19 0.94 3.082 1.524-1.744 2.070-4.040 3.659-6.668 4.52zM28.002 24.439c-1.012-0.676-2.186-1.268-3.486-1.75 0.456-1.629 0.757-3.515 0.839-5.459l0.002-0.051h5.278c-0.225 2.743-1.177 5.227-2.662 7.304l0.030-0.044z"></path>
</symbol>
<symbol id="money" viewBox="0 0 32 32">
<path fill="#00af80" style="fill: var(--color1, #00af80)" d="M22.848 22.233h-9.187c-0.259 0-0.469 0.21-0.469 0.469s0.21 0.469 0.469 0.469h9.187c1.81 0 3.282-1.472 3.282-3.282v-7.040c0-1.81-1.472-3.282-3.282-3.282h-2.662l-6.050-3.088c-0.604-0.308-1.345-0.067-1.653 0.536l-1.303 2.553h-1.736c-0.603 0-1.094 0.491-1.094 1.094v11.416c0 0.603 0.491 1.094 1.094 1.094h2.155c0.259 0 0.469-0.21 0.469-0.469s-0.21-0.469-0.469-0.469h-2.155c-0.086-0-0.156-0.070-0.156-0.156v0-11.416c0-0.086 0.070-0.156 0.156-0.156h13.404c1.293 0 2.344 1.052 2.344 2.344v1.524h-3.735c-1.196 0-2.169 0.973-2.169 2.169v0.625c0 1.196 0.973 2.169 2.169 2.169h3.735v0.553c0 1.293-1.052 2.345-2.344 2.345zM13.318 7.441c0.049-0.095 0.147-0.159 0.259-0.159 0.048 0 0.094 0.012 0.134 0.032l-0.002-0.001 4.414 2.253h-5.891zM21.457 18.398c-0.679 0-1.231-0.552-1.231-1.231v-0.625c0-0.679 0.552-1.231 1.231-1.231h3.735v3.088z"></path>
<path fill="#00af80" style="fill: var(--color1, #00af80)" d="M30.871 10.293c-0.749-1.817-1.832-3.447-3.221-4.845-0.335-0.337-0.684-0.657-1.047-0.961l-0.024-0.020c-0.081-0.067-0.185-0.108-0.3-0.108-0.145 0-0.274 0.065-0.36 0.168l-0.001 0.001c-0.067 0.081-0.108 0.185-0.108 0.3 0 0.145 0.065 0.274 0.168 0.36l0.001 0.001c0.364 0.304 0.692 0.605 1.005 0.92l0.001 0.001c2.629 2.647 4.077 6.16 4.077 9.891 0 3.75-1.46 7.275-4.111 9.926s-6.176 4.111-9.926 4.111c-2.962 0-5.783-0.906-8.174-2.624l0.554-0.72c2.23 1.594 4.86 2.436 7.62 2.436 3.508 0 6.807-1.371 9.291-3.861s3.847-5.793 3.838-9.301c-0.018-7.203-5.893-13.078-13.096-13.096l-0.034-0c-2.094 0-4.098 0.481-5.954 1.43-1.779 0.909-3.355 2.238-4.557 3.842-0.058 0.077-0.094 0.175-0.094 0.281 0 0.153 0.073 0.289 0.187 0.374l0.001 0.001c0.077 0.058 0.175 0.094 0.281 0.094 0.153 0 0.289-0.073 0.374-0.186l0.001-0.001c2.298-3.068 5.946-4.897 9.763-4.897l0.030 0c6.689 0.017 12.144 5.472 12.161 12.161 0.008 3.257-1.258 6.324-3.564 8.637s-5.371 3.586-8.627 3.586c-2.631 0-5.135-0.824-7.241-2.382-0.31-0.23-0.754-0.167-0.99 0.14l-0.825 1.073c-0.093 0.119-0.148 0.27-0.148 0.434 0 0.035 0.003 0.070 0.008 0.104l-0-0.004c0.028 0.197 0.132 0.365 0.281 0.476l0.002 0.001c2.591 1.924 5.674 2.941 8.914 2.941 4 0 7.761-1.558 10.589-4.386s4.386-6.589 4.386-10.589c0-1.97-0.38-3.89-1.129-5.707z"></path>
<path fill="#00af80" style="fill: var(--color1, #00af80)" d="M6.135 13.734c-0.088-0.148-0.229-0.256-0.396-0.299l-0.005-0.001c-0.049-0.013-0.105-0.021-0.163-0.021-0.123 0-0.237 0.034-0.335 0.093l0.003-0.002-0.17 0.101c0.238-1.169 0.609-2.207 1.106-3.169l-0.032 0.067c0.030-0.060 0.048-0.131 0.048-0.206 0-0.259-0.21-0.469-0.469-0.469-0.179 0-0.335 0.101-0.414 0.248l-0.001 0.003c-0.661 1.272-1.128 2.754-1.317 4.321l-0.006 0.062c-0.002 0.016-0.003 0.035-0.003 0.054 0 0.259 0.21 0.469 0.469 0.469 0.088 0 0.171-0.024 0.241-0.067l-0.002 0.001 0.783-0.464 0.463 0.781-2.677 1.586-2.205-2 0.61-0.672 0.629 0.571c0.083 0.075 0.194 0.121 0.315 0.121 0.241 0 0.439-0.181 0.466-0.415l0-0.002c0.353-3.185 1.744-6.073 4.024-8.352 2.639-2.639 6.146-4.099 9.877-4.111l0.048-0c2.567 0 5.069 0.692 7.24 2.004 0.070 0.043 0.154 0.069 0.245 0.069 0.259 0 0.469-0.21 0.469-0.469 0-0.17-0.091-0.319-0.227-0.401l-0.002-0.001c-2.317-1.4-4.987-2.139-7.725-2.139l-0.051 0c-1.97 0.007-3.889 0.393-5.703 1.148s-3.441 1.845-4.834 3.238c-2.218 2.218-3.647 4.976-4.168 8.022l-0.184-0.167c-0.129-0.117-0.296-0.176-0.471-0.169s-0.335 0.084-0.452 0.214l-0.992 1.094c-0.117 0.129-0.177 0.296-0.169 0.471s0.084 0.335 0.214 0.452l2.537 2.302c0.126 0.115 0.295 0.186 0.48 0.186h0c0.125 0 0.251-0.033 0.365-0.101l3.063-1.815c0.31-0.184 0.413-0.585 0.229-0.895z"></path>
<path fill="#00af80" style="fill: var(--color1, #00af80)" d="M22.572 16.849c0 0.437-0.354 0.791-0.791 0.791s-0.791-0.354-0.791-0.791c0-0.437 0.354-0.791 0.791-0.791s0.791 0.354 0.791 0.791z"></path>
</symbol>
<symbol id="settings" viewBox="0 0 32 32">
<path fill="#00af80" style="fill: var(--color1, #00af80)" d="M30.362 12.641l-2.246-0.381c-0.234-0.755-0.535-1.484-0.902-2.179l1.324-1.852c0.562-0.789 0.475-1.865-0.214-2.547l-1.992-1.992c-0.374-0.374-0.869-0.582-1.397-0.582-0.414 0-0.809 0.127-1.143 0.368l-1.858 1.324c-0.722-0.381-1.477-0.695-2.259-0.929l-0.374-2.219c-0.161-0.943-0.972-1.651-1.948-1.651-0.001 0-0.003 0-0.004 0h-2.814c-0.969 0-1.791 0.695-1.952 1.651l-0.388 2.273c-0.749 0.234-1.477 0.541-2.173 0.916l-1.838-1.324c-0.334-0.241-0.735-0.368-1.15-0.368-0.528 0-1.029 0.207-1.397 0.582l-1.999 1.992c-0.682 0.682-0.775 1.758-0.214 2.547l1.337 1.878c-0.368 0.702-0.662 1.431-0.889 2.186l-2.219 0.374c-0.943 0.161-1.651 0.972-1.651 1.948 0 0.001 0 0.003 0 0.004v-0 2.814c0 0.969 0.695 1.791 1.651 1.952l2.273 0.388c0.234 0.749 0.541 1.477 0.916 2.173l-1.317 1.832c-0.562 0.789-0.475 1.865 0.214 2.547l1.992 1.992c0.374 0.374 0.869 0.582 1.397 0.582 0.414 0 0.809-0.127 1.143-0.368l1.878-1.337c0.675 0.354 1.384 0.642 2.112 0.869l0.374 2.246c0.161 0.943 0.972 1.651 1.948 1.651 0.001 0 0.003 0 0.004 0h2.821c0.969 0 1.791-0.695 1.952-1.651l0.381-2.246c0.755-0.234 1.484-0.535 2.179-0.902l1.852 1.324c0.334 0.241 0.735 0.368 1.15 0.368 0.528 0 1.023-0.207 1.397-0.582l1.992-1.992c0.682-0.682 0.775-1.758 0.214-2.547l-1.324-1.858c0.368-0.702 0.675-1.431 0.902-2.179l2.246-0.374c0.943-0.161 1.651-0.972 1.651-1.948 0-0.001 0-0.003 0-0.004v0-2.814c0.013-0.969-0.682-1.791-1.638-1.952zM30.208 17.407c0 0.087-0.060 0.16-0.147 0.174l-2.808 0.468c-0.354 0.060-0.635 0.321-0.722 0.662-0.254 0.983-0.642 1.925-1.163 2.801-0.18 0.308-0.167 0.689 0.040 0.983l1.651 2.326c0.047 0.067 0.040 0.167-0.020 0.227l-1.992 1.992c-0.047 0.047-0.094 0.053-0.127 0.053-0.040 0-0.074-0.013-0.1-0.033l-2.32-1.651c-0.287-0.207-0.675-0.221-0.983-0.040-0.876 0.521-1.818 0.909-2.801 1.163-0.348 0.087-0.608 0.374-0.662 0.722l-0.475 2.808c-0.013 0.087-0.087 0.147-0.174 0.147h-2.814c-0.087 0-0.16-0.060-0.174-0.147l-0.468-2.808c-0.060-0.354-0.321-0.635-0.662-0.722-0.956-0.247-1.878-0.628-2.741-1.123-0.14-0.080-0.301-0.12-0.455-0.12-0.181 0-0.368 0.053-0.521 0.167l-2.34 1.665c-0.033 0.020-0.067 0.033-0.1 0.033-0.027 0-0.080-0.007-0.127-0.053l-1.992-1.992c-0.060-0.060-0.067-0.154-0.020-0.227l1.644-2.306c0.207-0.294 0.221-0.682 0.040-0.989-0.521-0.869-0.923-1.812-1.176-2.794-0.094-0.341-0.374-0.602-0.722-0.662l-2.828-0.481c-0.087-0.013-0.147-0.087-0.147-0.174v-2.814c0-0.087 0.060-0.16 0.147-0.174l2.788-0.468c0.354-0.060 0.642-0.321 0.729-0.668 0.247-0.983 0.628-1.932 1.143-2.808 0.181-0.307 0.16-0.689-0.047-0.976l-1.665-2.34c-0.047-0.067-0.040-0.167 0.020-0.227l1.992-1.992c0.047-0.047 0.094-0.053 0.127-0.053 0.040 0 0.074 0.013 0.1 0.033l2.306 1.644c0.294 0.207 0.682 0.221 0.989 0.040 0.869-0.521 1.812-0.923 2.794-1.176 0.341-0.094 0.602-0.374 0.662-0.722l0.481-2.828c0.013-0.087 0.087-0.147 0.174-0.147h2.814c0.087 0 0.16 0.060 0.174 0.147l0.468 2.788c0.060 0.354 0.321 0.642 0.668 0.729 1.009 0.254 1.972 0.648 2.868 1.176 0.308 0.181 0.689 0.167 0.983-0.040l2.306-1.658c0.033-0.020 0.067-0.033 0.1-0.033 0.027 0 0.080 0.007 0.127 0.053l1.992 1.992c0.060 0.060 0.067 0.154 0.020 0.227l-1.651 2.32c-0.207 0.287-0.221 0.675-0.040 0.983 0.521 0.876 0.909 1.818 1.163 2.801 0.087 0.348 0.374 0.608 0.722 0.662l2.808 0.475c0.087 0.013 0.147 0.087 0.147 0.174v2.814h-0.007z"></path>
<path fill="#00af80" style="fill: var(--color1, #00af80)" d="M16.003 9.091c-3.81 0-6.905 3.095-6.905 6.905s3.095 6.905 6.905 6.905 6.905-3.095 6.905-6.905-3.095-6.905-6.905-6.905zM16.003 21.097c-2.814 0-5.1-2.286-5.1-5.1s2.286-5.1 5.1-5.1 5.1 2.286 5.1 5.1-2.286 5.1-5.1 5.1z"></path>
</symbol>
</defs>
</svg>
