<svg aria-hidden="true" style="position:absolute;width:0;height:0" xmlns="http://www.w3.org/2000/svg" overflow="hidden"><defs><symbol id="like" viewBox="0 0 32 32"><path fill="var(--color1, #fff)" d="M31.947 9.996c-.467-5.141-4.106-8.871-8.66-8.871-3.034 0-5.812 1.633-7.375 4.249-1.549-2.651-4.213-4.25-7.199-4.25-4.553 0-8.193 3.73-8.66 8.871-.037.227-.188 1.422.272 3.371.663 2.811 2.196 5.368 4.43 7.393l11.148 10.117 11.34-10.116c2.235-2.025 3.767-4.582 4.43-7.394.46-1.948.309-3.144.273-3.371zm-1.471 3.088c-.606 2.568-2.009 4.907-4.056 6.76L15.911 29.22 5.582 19.847c-2.05-1.857-3.453-4.196-4.059-6.763-.436-1.844-.257-2.886-.256-2.893l.009-.062c.4-4.504 3.527-7.774 7.436-7.774 2.884 0 5.424 1.772 6.629 4.625l.567 1.343.567-1.343c1.186-2.809 3.859-4.624 6.812-4.624 3.909 0 7.036 3.27 7.444 7.832.001.01.18 1.052-.255 2.897z"/></symbol><symbol id="shopping-cart" viewBox="0 0 32 32"><path fill="var(--color1, #fff)" d="M31.867 5.6c-.133-.133-.267-.267-.533-.267H6.001l-.667-3.467c0-.267-.4-.533-.667-.533h-4C.267 1.333 0 1.6 0 2s.267.667.667.667h3.467l3.2 16.267c.4 2.133 2.4 3.733 4.533 3.733H27.2c.4 0 .667-.267.667-.667s-.267-.667-.667-.667H12c-1.067 0-2.133-.533-2.667-1.467L28.8 17.199c.267 0 .533-.267.533-.533L32 5.999s0-.267-.133-.4zM28.133 16L8.666 18.533l-2.4-12h24.133L28.132 16zm-16.8 8C9.466 24 8 25.467 8 27.333s1.467 3.333 3.333 3.333c1.867 0 3.333-1.467 3.333-3.333S13.199 24 11.333 24zm0 5.333c-1.067 0-2-.933-2-2s.933-2 2-2 2 .933 2 2-.933 2-2 2zM24.667 24c-1.867 0-3.333 1.467-3.333 3.333s1.467 3.333 3.333 3.333c1.867 0 3.333-1.467 3.333-3.333S26.533 24 24.667 24zm0 5.333c-1.067 0-2-.933-2-2s.933-2 2-2 2 .933 2 2-.933 2-2 2z"/></symbol><symbol id="shuffle" viewBox="0 0 32 32"><path fill="var(--color1, #fff)" d="M12.699 21.831l.979-1.58a.797.797 0 00-.261-1.103.799.799 0 00-1.103.261l-.979 1.58c-1.776 2.866-4.309 4.512-6.96 4.512H.797c-.444 0-.797.359-.797.803s.359.803.797.803h3.585c3.219-.013 6.249-1.933 8.318-5.276zM31.758 6.448L27.88 2.563c-.313-.313-.816-.313-1.13 0s-.313.816 0 1.13l2.52 2.52h-3.715c-3.212 0-6.249 1.92-8.318 5.263l-.601.973a.797.797 0 00.679 1.221.8.8 0 00.679-.379l.601-.973c1.776-2.866 4.309-4.505 6.96-4.505h3.709l-2.52 2.52a.797.797 0 000 1.13c.157.157.359.235.568.235s.411-.078.568-.235l3.885-3.885a.802.802 0 00-.007-1.13zm-1.704.574v-.026l.013.013-.013.013z"/><path fill="var(--color1, #fff)" d="M26.744 30.743c.157.157.359.235.568.235s.411-.078.568-.235l3.885-3.885a.797.797 0 000-1.13L27.88 21.85c-.313-.313-.816-.313-1.13 0s-.313.816 0 1.13l2.52 2.52h-3.598c-2.644 0-5.184-1.645-6.96-4.512l-5.889-9.513c-2.07-3.35-5.106-5.263-8.318-5.263H.796c-.444 0-.797.359-.797.803s.359.803.797.803h3.702c2.644 0 5.184 1.645 6.96 4.505l5.889 9.513c2.07 3.35 5.106 5.269 8.318 5.269h3.598l-2.52 2.52a.791.791 0 000 1.116zm3.31-4.459l.013.013-.013.013v-.026z"/></symbol><symbol id="wall-clock" viewBox="0 0 32 32"><path fill="var(--color1, #fff)" d="M4.686 4.686C7.708 1.664 11.726 0 16 0s8.292 1.664 11.314 4.686C30.336 7.708 32 11.726 32 16s-1.664 8.292-4.686 11.314C24.292 30.336 20.274 32 16 32s-8.292-1.664-11.314-4.686C1.664 24.292 0 20.274 0 16S1.664 7.708 4.686 4.686zM16 29.5c7.444 0 13.5-6.056 13.5-13.5S23.444 2.5 16 2.5 2.5 8.556 2.5 16 8.556 29.5 16 29.5z"/><path fill="var(--color1, #fff)" d="M14.75 14.75v-10h2.5v12.5h-9.5v-2.5z"/></symbol></defs></svg>