<svg xmlns="http://www.w3.org/2000/svg" viewBox="0 0 512 512"><path d="M74.98 74.98C123.333 26.629 187.62 0 256 0s132.667 26.629 181.02 74.98C485.371 123.333 512 187.62 512 256s-26.629 132.667-74.98 181.02C388.667 485.371 324.38 512 256 512s-132.667-26.629-181.02-74.98C26.629 388.667 0 324.38 0 256S26.629 123.333 74.98 74.98zM256 472c119.103 0 216-96.897 216-216S375.103 40 256 40 40 136.897 40 256s96.897 216 216 216z" data-original="#000000" class="active-path" data-old_color="#000000" fill="#fff"/><path data-original="#000000" class="active-path" data-old_color="#000000" fill="#fff" d="M236 236V76h40v200H124v-40z"/></svg>